<?xml version="1.0" encoding="utf-8"?>
<svg viewBox="0 0 512 512" xmlns="http://www.w3.org/2000/svg" xmlns:bx="https://boxy-svg.com">
  <defs>
    <linearGradient gradientUnits="userSpaceOnUse" x1="274.573" y1="82.283" x2="274.573" y2="419.547" id="gradient-0" gradientTransform="matrix(1, 0, 0, 1, 19.527988, 3.317965)">
      <stop offset="0" style="stop-color: rgb(38, 81, 134);"/>
      <stop offset="1" style="stop-color: rgb(26, 45, 77);"/>
    </linearGradient>
  </defs>
  <path style="fill: none; stroke-linejoin: round; stroke: rgb(168, 158, 236); stroke-width: 4px; stroke-linecap: round; stroke-opacity: 0.88;" d="M 155.481 393.511 C 158.106 343.599 190.245 117.12 200.028 103.311 C 208.362 91.547 232.285 137.714 242.109 152.952 C 274.353 143.615 314.261 146.348 340.505 154.8 C 346.657 141.83 365.482 90.122 376.485 95.311 C 388.694 101.069 433.32 407.955 428.309 417.543 C 429.298 427.642 156.213 427.585 150.506 419.117 L 150.423 417.632 C 139.891 418.681 94.387 417.463 83.785 377.395 C 72.022 321.122 133.654 305.539 131.605 319.655 C 129.807 332.041 95.276 336.055 104.925 369.156 C 113.085 393.402 146.889 393.624 155.481 393.511 Z" bx:origin="0.538 0.527"/>
  <path style="fill: url(#gradient-0);" d="M 150.684 391.854 C 151.962 341.352 183.376 91.921 196.279 87.181 C 210.485 81.962 234.15 128.289 242.598 144.817 C 274.842 135.48 313.535 136.407 339.779 144.859 C 345.931 131.889 368.734 82.272 379.937 87.013 C 393.542 92.771 435.967 406.788 429.809 416.333 C 426.12 427.162 156.039 426.118 150.332 417.65 L 150.249 416.165 C 139.717 417.214 93.713 416.246 83.111 376.178 C 71.348 319.905 131.373 303.835 132.468 318.057 C 133.421 330.443 96.058 332.476 104.788 367.808 C 111.898 391.595 142.092 391.967 150.684 391.854 Z"/>
  <path style="fill: rgb(255, 255, 255);" d="M 291.852 249.332 C 294.322 249.174 296.314 256.535 302.465 256.522 C 306.066 256.514 308.851 253.697 310.416 254.848 C 311.981 255.999 308.576 259.601 302.852 259.76 C 297.815 259.9 291.446 254.979 291.947 253.028 C 292.633 254.852 287.252 259.775 281.968 259.874 C 276.005 259.986 272.734 257.111 273.567 255.643 C 274.804 253.914 278.817 256.474 281.61 256.314 C 287.553 255.974 289.527 249.481 291.852 249.332 Z"/>
  <path style="fill: rgb(255, 255, 255);" d="M 229.517 191.014 C 209.707 191.118 209.711 220.789 228.826 220.945 C 250.615 221.123 248.556 190.914 229.517 191.014 Z"/>
  <path style="fill: rgb(255, 255, 255);" d="M 353.143 191.263 C 331.629 191.004 333.303 221.124 352.692 220.985 C 372.835 220.841 371.685 191.486 353.143 191.263 Z"/>
</svg>